<?xml version="1.0" standalone="no"?><!DOCTYPE svg PUBLIC "-//W3C//DTD SVG 1.1//EN" "http://www.w3.org/Graphics/SVG/1.1/DTD/svg11.dtd"><svg t="1603187692273" class="icon" viewBox="0 0 1024 1024" version="1.1" xmlns="http://www.w3.org/2000/svg" p-id="2053" xmlns:xlink="http://www.w3.org/1999/xlink" width="200" height="200"><defs><style type="text/css"></style></defs><path d="M764.988235 512L512 259.011765 259.011765 512l252.988235 252.988235 252.988235-252.988235z m-409.6 6.023529v-12.047058l150.588236-150.588236 6.023529-6.023529 6.023529 6.023529 150.588236 150.588236 6.023529 6.023529-6.023529 6.023529-150.588236 150.588236-6.023529 6.023529-6.023529-6.023529-150.588236-150.588236z" p-id="2054"></path><path d="M873.411765 150.588235C777.035294 54.211765 650.541176 0 512 0 228.894118 0 0 228.894118 0 512S228.894118 1024 512 1024 1024 795.105882 1024 512c0-138.541176-54.211765-265.035294-150.588235-361.411765z m72.282353 361.411765c0 234.917647-192.752941 427.670588-433.694118 427.670588-234.917647 0-427.670588-192.752941-427.670588-433.694117 0-234.917647 192.752941-427.670588 433.694117-427.670589 228.894118 6.023529 421.647059 198.776471 427.670589 433.694118z" p-id="2055"></path></svg>