<?xml version="1.0" standalone="no"?><!DOCTYPE svg PUBLIC "-//W3C//DTD SVG 1.1//EN" "http://www.w3.org/Graphics/SVG/1.1/DTD/svg11.dtd"><svg t="1603187989848" class="icon" viewBox="0 0 1024 1024" version="1.1" xmlns="http://www.w3.org/2000/svg" p-id="2181" xmlns:xlink="http://www.w3.org/1999/xlink" width="200" height="200"><defs><style type="text/css"></style></defs><path d="M802.304 614.4v-31.232h61.44v37.376c18.432 6.144 36.864 12.288 55.296 24.576l24.576-24.576 43.008 43.52-24.576 24.576c12.288 18.432 18.432 37.376 24.576 55.808h36.864v61.952h-36.864c-6.144 18.432-12.288 37.376-24.576 55.808l24.576 24.576-43.008 43.52-24.576-24.576c-18.432 12.288-36.864 18.432-55.296 24.576v24.576h-61.44v-37.376c-18.432-6.144-36.864-12.288-55.296-24.576l-24.576 24.576-43.008-37.376 24.576-24.576c-12.288-18.432-18.432-37.376-24.576-55.808h-36.864v-61.952h36.864c6.144-18.432 12.288-37.376 24.576-55.808l-24.576-24.576 43.008-43.52 24.576 24.576c18.432-11.776 36.864-17.92 55.296-24.064z m122.88-74.752c-18.432-6.144-43.008-12.288-61.44-18.432V87.552H66.56v805.376h551.936c12.288 24.576 30.72 43.52 49.152 61.952H5.12V25.6h920.064v514.048z m-429.568 43.52h122.88V645.12h-122.88v61.952h-61.44V645.12h-122.88v-61.952h122.88v-61.952h-122.88V459.264h122.88L281.088 304.64l43.008-43.52 141.312 142.336L606.208 261.12l43.008 43.52-153.6 154.624h122.88v61.952h-122.88v61.952z m337.408 279.04c49.152 0 92.16-43.52 92.16-93.184s-43.008-93.184-92.16-93.184-92.16 43.52-92.16 93.184 43.008 93.184 92.16 93.184z m0-61.952c-18.432 0-30.72-12.288-30.72-31.232 0-18.432 12.288-31.232 30.72-31.232s30.72 12.288 30.72 31.232c0 18.432-12.288 31.232-30.72 31.232z" p-id="2182"></path></svg>