<?xml version="1.0" standalone="no"?><!DOCTYPE svg PUBLIC "-//W3C//DTD SVG 1.1//EN" "http://www.w3.org/Graphics/SVG/1.1/DTD/svg11.dtd"><svg t="1603182994876" class="icon" viewBox="0 0 1024 1024" version="1.1" xmlns="http://www.w3.org/2000/svg" p-id="1918" xmlns:xlink="http://www.w3.org/1999/xlink" width="200" height="200"><defs><style type="text/css"></style></defs><path d="M682.496 473.088H341.504c-17.92 0-32.256-14.336-32.256-32.256s14.336-32.256 32.256-32.256h341.504c17.92 0 32.256 14.336 32.256 32.256s-14.848 32.256-32.768 32.256z m0 144.896H341.504c-17.92 0-32.256-14.336-32.256-32.256s14.336-32.256 32.256-32.256h341.504c17.92 0 32.256 14.336 32.256 32.256s-14.848 32.256-32.768 32.256z" p-id="1919"></path><path d="M512 819.2c-17.92 0-32.256-14.336-32.256-32.256v-314.88c0-17.92 14.336-32.256 32.256-32.256s32.256 14.336 32.256 32.256v315.392C543.744 804.864 529.92 819.2 512 819.2z" p-id="1920"></path><path d="M512 473.088c-8.192 0-16.384-3.072-22.528-9.216-12.288-12.288-12.288-32.768 0-45.056L640 267.264c12.288-12.288 32.768-12.288 45.056 0 12.288 12.288 12.288 32.768 0 45.056l-151.04 151.04c-5.632 6.656-13.824 9.728-22.016 9.728z" p-id="1921"></path><path d="M512 473.088c-8.192 0-16.384-3.072-22.528-9.216l-151.04-151.04c-12.288-12.288-12.288-32.768 0-45.056 12.288-12.288 32.768-12.288 45.056 0l151.04 151.04c12.288 12.288 12.288 32.768 0 45.056-6.144 6.144-14.336 9.216-22.528 9.216z" p-id="1922"></path><path d="M985.088 463.872c-15.36 0-28.672-11.264-31.744-26.624C916.992 221.184 731.136 64 511.488 64 313.856 64 143.36 191.488 84.992 374.272l48.64-23.04c15.872-7.68 34.816-0.512 42.496 15.36s0.512 34.816-15.36 42.496L52.224 460.8c-10.752 5.12-23.552 3.584-32.768-3.584a31.232 31.232 0 0 1-12.288-30.72c19.968-117.76 80.896-225.792 172.544-304.128C272.384 43.52 390.144 0 512 0c121.856 0 239.616 43.52 332.288 122.368 91.648 78.336 152.576 186.368 172.544 304.128 3.072 17.408-8.704 33.792-26.112 36.864-2.048 0.512-3.584 0.512-5.632 0.512zM512 1024c-121.856 0-239.616-43.52-332.288-122.368C88.064 823.296 27.136 715.264 7.168 597.504c-3.072-17.408 8.704-33.792 26.112-36.864 17.408-3.072 33.792 8.704 36.864 26.112C106.496 802.816 292.352 960 512 960c196.608 0 366.08-125.44 425.472-306.688l-45.568 24.064c-15.872 8.192-34.816 2.048-43.008-13.312-8.192-15.872-2.048-34.816 13.312-43.008l108.544-56.832c10.752-5.632 23.552-4.608 33.792 2.56 9.728 7.168 14.848 19.456 12.8 31.232-19.968 117.76-80.896 225.792-172.544 304.128C751.616 980.48 633.856 1024 512 1024z" p-id="1923"></path></svg>