<?xml version="1.0" standalone="no"?><!DOCTYPE svg PUBLIC "-//W3C//DTD SVG 1.1//EN" "http://www.w3.org/Graphics/SVG/1.1/DTD/svg11.dtd"><svg t="1603188110985" class="icon" viewBox="0 0 1024 1024" version="1.1" xmlns="http://www.w3.org/2000/svg" p-id="2308" xmlns:xlink="http://www.w3.org/1999/xlink" width="200" height="200"><defs><style type="text/css"></style></defs><path d="M485.872 4.912a37.232 37.232 0 0 1 36.976 0L934.24 240.608a36.64 36.64 0 0 1 18.496 31.792v471.392c0 13.12-7.04 25.216-18.496 31.776L522.88 1011.264c-11.456 6.56-25.552 6.56-36.992 0L74.496 775.584A36.64 36.64 0 0 1 56 743.776V272.4c0-13.12 7.04-25.232 18.496-31.792L485.856 4.928zM132.88 274.56c-2.88 1.648-12.048 6.56-12.048 9.84v440.8c0 3.28 3.216 11.104 6.08 12.752l372.832 213.36a9.312 9.312 0 0 0 9.232 0l370.992-213.36c2.848-1.648 8.08-9.472 8.08-12.736V284.384c0-3.28-5.232-8.192-8.08-9.84L508.96 65.712a9.312 9.312 0 0 0-9.232 0L132.864 274.56zM504 491.616l292.256-170.912c17.696-10.128 36.832-13.008 47.04 4.544 10.224 17.552 3.2 32.112-14.496 42.24L535.952 540.432v318.336c0 20.256-11.04 31.392-31.472 31.392-20.432 0-32.736-13.76-32.736-34.048v-315.68L183.264 371.408c-0.768-0.432-4.752-6.384-5.472-6.864-15.952-10.688-20.416-27.04-10.656-43.84 10.224-17.552 30.256-14 47.936-3.856L504 491.616z" p-id="2309"></path></svg>