<?xml version="1.0" standalone="no"?><!DOCTYPE svg PUBLIC "-//W3C//DTD SVG 1.1//EN" "http://www.w3.org/Graphics/SVG/1.1/DTD/svg11.dtd"><svg t="1603188241849" class="icon" viewBox="0 0 1024 1024" version="1.1" xmlns="http://www.w3.org/2000/svg" p-id="3186" xmlns:xlink="http://www.w3.org/1999/xlink" width="200" height="200"><defs><style type="text/css"></style></defs><path d="M922.453 0H100.921A100.978 100.978 0 0 0 0 100.779v317.07h72.135V114.46c0-23.438 19.03-42.58 42.44-42.58h794.168c23.495 0 42.553 19.142 42.553 42.58v794.283c0 23.467-19.058 42.61-42.553 42.61H114.574a42.581 42.581 0 0 1-42.439-42.61V590.876H209.01c9.67 0 18.688-3.697 25.486-10.496l48.81-48.81L392.05 785.323c5.774 13.198 18.745 21.703 34.531 21.703a36.124 36.124 0 0 0 32.825-24.633l136.05-408.15 54.528 190.578c4.352 15.417 18.574 26.055 34.617 26.055h129.707c19.996 0 36.124-16.042 36.124-35.896 0-19.855-16.128-35.897-36.124-35.897H711.794l-79.019-276.48c-4.352-15.303-17.92-25.771-34.759-26.14-14.99 0-29.27 10.353-34.133 24.604l-142.934 428.8L328.62 454.4a36.068 36.068 0 0 0-26.34-21.106 36.267 36.267 0 0 0-32.313 9.87l-75.946 75.947H36.068C16.213 519.14 0 535.211 0 555.975v366.393a101.035 101.035 0 0 0 100.92 100.95h821.533a100.978 100.978 0 0 0 100.864-100.95v-821.59A100.95 100.95 0 0 0 922.453 0z" p-id="3187"></path></svg>